<mxfile host="65bd71144e" modified="2020-12-18T01:04:11.421Z" agent="5.0 (Macintosh; Intel Mac OS X 10_15_7) AppleWebKit/537.36 (KHTML, like Gecko) Code/1.52.0 Chrome/83.0.4103.122 Electron/9.3.5 Safari/537.36" etag="RNGIRb756o9elb9cSTmY" version="13.10.0" type="embed">
    <diagram id="r7nNimf1MjJ2pFUwuSIe" name="第 1 页">
        <mxGraphModel dx="728" dy="382" grid="1" gridSize="10" guides="1" tooltips="1" connect="1" arrows="1" fold="1" page="1" pageScale="1" pageWidth="827" pageHeight="1169" math="0" shadow="0">
            <root>
                <mxCell id="0"/>
                <mxCell id="1" parent="0"/>
                <mxCell id="3" value="get" style="rounded=1;whiteSpace=wrap;fontSize=12;glass=0;strokeWidth=1;shadow=0;" parent="1" vertex="1">
                    <mxGeometry x="30" y="30" width="120" height="40" as="geometry"/>
                </mxCell>
                <mxCell id="4" value="set" style="rounded=1;whiteSpace=wrap;fontSize=12;glass=0;strokeWidth=1;shadow=0;" parent="1" vertex="1">
                    <mxGeometry x="180" y="30" width="120" height="40" as="geometry"/>
                </mxCell>
                <mxCell id="5" value="deleteProperty" style="rounded=1;whiteSpace=wrap;fontSize=12;glass=0;strokeWidth=1;shadow=0;" parent="1" vertex="1">
                    <mxGeometry x="330" y="30" width="120" height="40" as="geometry"/>
                </mxCell>
                <mxCell id="7" value="has" style="rounded=1;whiteSpace=wrap;fontSize=12;glass=0;strokeWidth=1;shadow=0;" parent="1" vertex="1">
                    <mxGeometry x="480" y="30" width="120" height="40" as="geometry"/>
                </mxCell>
                <mxCell id="9" value="ownKeys" style="rounded=1;whiteSpace=wrap;fontSize=12;glass=0;strokeWidth=1;shadow=0;" parent="1" vertex="1">
                    <mxGeometry x="630" y="30" width="120" height="40" as="geometry"/>
                </mxCell>
                <mxCell id="11" value="shallowSet" style="rounded=1;whiteSpace=wrap;fontSize=12;glass=0;strokeWidth=1;shadow=0;" vertex="1" parent="1">
                    <mxGeometry x="180" y="100" width="120" height="40" as="geometry"/>
                </mxCell>
                <mxCell id="12" value="shallowGet" style="rounded=1;whiteSpace=wrap;fontSize=12;glass=0;strokeWidth=1;shadow=0;" vertex="1" parent="1">
                    <mxGeometry x="30" y="100" width="120" height="40" as="geometry"/>
                </mxCell>
                <mxCell id="13" value="readonlyGet" style="rounded=1;whiteSpace=wrap;fontSize=12;glass=0;strokeWidth=1;shadow=0;" vertex="1" parent="1">
                    <mxGeometry x="30" y="170" width="120" height="40" as="geometry"/>
                </mxCell>
                <mxCell id="16" value="shallowReadonlyGet" style="rounded=1;whiteSpace=wrap;fontSize=12;glass=0;strokeWidth=1;shadow=0;" vertex="1" parent="1">
                    <mxGeometry x="30" y="240" width="120" height="40" as="geometry"/>
                </mxCell>
            </root>
        </mxGraphModel>
    </diagram>
</mxfile>